<svg xmlns="http://www.w3.org/2000/svg" width="1440" height="800" viewBox="0 0 1440 800" fill="none"><path opacity="0.3" d="M1440 626.276C1392.67 641.687 1303.47 607.988 1161 607.988C1100.44 611.526 1161 843.795 969.963 766.114C915.672 740.149 873.418 683.482 883.449 626.276C892.476 575.126 939.996 532.671 936.486 480.921C934.041 444.642 905.453 413.461 871.098 398.05C836.743 382.579 797.436 380.48 759.507 382.399C728.412 383.958 695.311 388.815 672.178 408.723C658.323 420.656 649.108 440.985 658.511 456.396C663.903 465.27 674.184 470.367 684.403 473.605C713.554 482.78 750.166 477.563 767.532 453.457C785.712 428.272 775.744 391.514 752.799 370.166C729.791 348.819 697.38 339.884 665.784 334.727C578.141 320.335 487.928 329.27 399.658 318.716C311.388 308.162 96.838 142.603 51.9995 -6" stroke="#EBAC91" stroke-miterlimit="10"></path><path opacity="0.3" d="M375.31 800.877C395.388 790.991 407.872 767.932 414.57 744.708C429.726 692.147 418.633 628.966 380.255 595.155C341.949 561.408 287.501 562.818 238.626 570.975C193.972 578.428 149.959 590.173 105.529 599.239C88.6135 602.703 67.3529 603.73 58.7124 587.456C50.8015 572.551 59.4613 553.102 70.4017 540.354C82.4715 526.307 97.2778 515.614 111.246 503.942C125.213 492.27 138.795 479.087 146.933 461.927C155.097 444.768 156.861 422.842 147.482 406.848C139.155 392.648 123.931 385.557 109.118 381.203C68.873 369.338 25.0548 371.941 -14.2813 388.595" stroke="#EBAC91" stroke-miterlimit="10"></path></svg>